<svg width="235" height="145" viewBox="0 0 235 145" fill="none" xmlns="http://www.w3.org/2000/svg">
<path d="M47.7296 144.2C33.063 144.2 21.463 140.133 12.9296 132C4.39631 123.733 0.129639 112.533 0.129639 98.4V45.6C0.129639 31.7334 4.39631 20.7334 12.9296 12.6C21.463 4.46669 33.063 0.400024 47.7296 0.400024C62.3963 0.400024 73.9963 4.46669 82.5296 12.6C91.1963 20.7334 95.5296 31.7334 95.5296 45.6V98.4C95.5296 112.533 91.1963 123.733 82.5296 132C73.9963 140.133 62.3963 144.2 47.7296 144.2ZM47.7296 120C53.7296 120 58.463 118.2 61.9296 114.6C65.5296 110.867 67.3296 105.933 67.3296 99.8V44.8C67.3296 38.6667 65.5296 33.8 61.9296 30.2C58.463 26.4667 53.7296 24.6 47.7296 24.6C41.863 24.6 37.1296 26.4667 33.5296 30.2C30.063 33.8 28.3296 38.6667 28.3296 44.8V99.8C28.3296 105.933 30.063 110.867 33.5296 114.6C37.1296 118.2 41.863 120 47.7296 120Z" fill="#E0DFD9"/>
<path d="M230.392 75.2C233.059 81.3334 234.392 88.4 234.392 96.4C234.392 103.6 233.192 110.267 230.792 116.4C227.592 124.933 222.192 131.6 214.592 136.4C207.125 141.2 198.259 143.6 187.992 143.6C177.859 143.6 168.925 141.067 161.192 136C153.592 130.933 148.125 124.067 144.792 115.4C142.925 110.2 141.859 104.6 141.592 98.6C141.592 97 142.392 96.2 143.992 96.2H167.592C169.192 96.2 169.992 97 169.992 98.6C170.525 103 171.259 106.267 172.192 108.4C173.392 111.867 175.325 114.6 177.992 116.6C180.792 118.467 184.059 119.4 187.792 119.4C195.259 119.4 200.392 116.133 203.192 109.6C205.059 105.6 205.992 100.933 205.992 95.6C205.992 89.3334 204.992 84.2 202.992 80.2C199.925 73.9334 194.792 70.8 187.592 70.8C186.125 70.8 184.592 71.2667 182.992 72.2C181.392 73 179.459 74.2 177.192 75.8C176.659 76.2 176.125 76.4 175.592 76.4C174.792 76.4 174.192 76 173.792 75.2L161.992 58.6C161.725 58.2 161.592 57.7334 161.592 57.2C161.592 56.4 161.859 55.7334 162.392 55.2L194.192 27.4C194.459 27.1334 194.525 26.8667 194.392 26.6C194.392 26.3334 194.192 26.2 193.792 26.2H146.792C146.125 26.2 145.525 26 144.992 25.6C144.592 25.0667 144.392 24.4667 144.392 23.8V4.40002C144.392 3.73335 144.592 3.20002 144.992 2.80002C145.525 2.26668 146.125 2.00002 146.792 2.00002H230.192C230.859 2.00002 231.392 2.26668 231.792 2.80002C232.325 3.20002 232.592 3.73335 232.592 4.40002V26.4C232.592 27.4667 232.125 28.4667 231.192 29.4L204.992 53.4C204.725 53.6667 204.592 53.9334 204.592 54.2C204.725 54.4667 205.059 54.6 205.592 54.6C217.192 56.8667 225.459 63.7334 230.392 75.2Z" fill="#E0DFD9"/>
</svg>
