<svg width="103" height="101" viewBox="0 0 103 101" fill="none" xmlns="http://www.w3.org/2000/svg">
<path d="M48.3676 0.147949C42.8114 0.760994 38.9819 1.64885 34.621 3.2766C28.3786 5.60194 21.7599 9.57616 17.5097 13.5504L16.1151 14.861L19.1921 17.8417C22.2469 20.7801 26.2535 24.7543 28.9984 27.5236C29.7732 28.3269 30.4815 28.9611 30.5922 28.9611C30.6808 28.9611 30.7693 24.5006 30.7693 19.0467C30.7693 13.5927 30.8357 8.96312 30.9021 8.77286C31.1456 8.18096 32.2082 7.80045 32.9165 8.05412C33.2486 8.15982 33.6028 8.39235 33.6913 8.51919C33.7798 8.66716 33.8684 14.4594 33.8684 21.4143V34.0557L36.3476 33.9923C38.7605 33.9289 38.849 33.9077 39.1147 33.4004C39.336 32.9987 39.4024 29.8278 39.4024 19.3849V5.87675L40.0665 5.26371C40.797 4.54496 41.439 4.5661 42.1252 5.32713C42.4573 5.70764 42.5015 6.25726 42.5015 10.0835V14.396L46.3754 18.1588L50.2492 21.9216V24.0567C50.2492 25.2405 50.1607 26.2129 50.05 26.2129C49.9614 26.2129 48.2791 24.6275 46.3532 22.6615C44.4274 20.7167 42.745 19.0889 42.6343 19.0467C42.5237 19.0044 42.4794 20.167 42.5458 21.8582L42.6565 24.7543L46.4418 28.3903L50.2492 32.0263V38.7064V45.3865L50.8248 45.9784L51.3782 46.5491L51.9316 46.0629L52.4628 45.5979V38.8121V32.0263L56.226 28.4326L60.0113 24.8177L59.9449 21.9216L59.8785 19.0255L57.9084 21.0972C56.8237 22.2176 55.1413 23.9299 54.1895 24.9023L52.4628 26.6569V24.3104V21.9639L55.1856 19.2792C56.6687 17.7994 58.4175 16.0448 59.0373 15.3895L60.2105 14.1846L60.1441 9.97781C60.0998 6.08815 60.122 5.72878 60.5204 5.30598C61.1402 4.65066 62.2692 4.71408 62.8447 5.41168C63.3096 5.96131 63.3096 6.13042 63.3096 19.7443C63.3096 30.1872 63.376 33.5906 63.5752 33.7809C63.7523 33.95 64.682 34.0346 66.298 34.0346H68.733L68.7773 21.4566C68.8215 13.1699 68.9101 8.70944 69.065 8.45577C69.4192 7.84272 70.8359 7.885 71.4557 8.51919C71.9427 9.0054 71.9427 9.04768 71.9427 18.8987C71.9427 27.2699 71.987 28.7708 72.2526 28.7074C72.4297 28.6651 75.7502 25.5365 79.6683 21.7525L86.774 14.8399L85.0474 13.2756C80.7751 9.38591 74.6876 5.6865 69.1757 3.63597C64.682 1.96595 60.1441 0.845554 56.3367 0.422764C55.1192 0.295925 53.8574 0.147949 53.5254 0.105671L52.9056 -2.67029e-05V1.90253V3.80508L53.9902 4.31243C55.9161 5.24257 57.1336 7.20854 57.0893 9.28021C57.0672 10.4852 56.7573 11.3307 55.8497 12.5568C55.2299 13.3813 53.1048 15.009 52.6399 15.009C52.5292 15.009 52.4628 14.2057 52.4628 13.2333C52.4628 11.669 52.3964 11.3942 51.998 11.1405C51.7545 10.9714 51.356 10.8868 51.1125 10.9291C50.3378 11.1405 50.0278 11.8381 50.0278 13.4658C50.0278 14.3114 49.9614 15.009 49.895 15.009C49.8286 15.009 49.3416 14.7342 48.8104 14.3748C45.2021 12.0072 44.5602 7.90614 47.3715 5.28485C47.947 4.73522 48.7439 4.16445 49.1203 4.01648L49.8065 3.7628V1.88139C49.8065 -0.169144 49.9172 -0.042305 48.3676 0.147949ZM76.5914 11.8169C77.5653 12.4723 78.1409 13.5081 78.1409 14.5651C78.1409 15.4318 78.2294 15.6009 78.9157 16.1294C79.3362 16.4465 79.6904 16.827 79.6904 16.975C79.6904 17.2498 75.4845 21.3509 75.2189 21.3509C75.1082 21.3509 75.0418 19.0678 75.0418 16.2562V11.1828L75.5509 11.3096C75.8166 11.3942 76.2814 11.6267 76.5914 11.8169ZM27.6702 16.4254V21.4143L27.1832 20.9915C25.7665 19.7654 25.2131 19.2581 24.2391 18.2434C23.2208 17.1652 23.1987 17.123 23.5308 16.6156C23.73 16.3197 24.0842 16.0448 24.3277 15.9603C24.6597 15.8546 24.7483 15.5798 24.8368 14.4382C24.9253 13.1276 24.9696 13.0008 25.8551 12.2397C26.3642 11.7747 26.9619 11.4153 27.2275 11.4153C27.6702 11.4153 27.6702 11.521 27.6702 16.4254ZM37.9193 12.7259C38.8269 13.7406 38.5613 15.0513 37.3216 15.6009C36.2148 16.1294 34.7538 15.1781 34.7538 13.952C34.7538 12.3454 36.8568 11.521 37.9193 12.7259ZM66.9621 12.3877C67.3827 12.5568 67.9582 13.5504 67.9582 14.1212C67.9582 14.3537 67.759 14.7765 67.4934 15.0936C66.8957 15.8123 65.479 15.8757 64.7042 15.1781C63.6195 14.2057 64.3943 12.2609 65.8553 12.2609C66.2537 12.2609 66.7629 12.3243 66.9621 12.3877ZM37.9415 19.8922C39.004 21.0972 38.362 22.8306 36.8568 22.8306C35.8164 22.8306 35.4401 22.6615 35.0859 21.9639C34.3332 20.5898 35.0637 19.2369 36.5247 19.2369C37.1888 19.2369 37.4766 19.3637 37.9415 19.8922ZM67.3163 19.85C68.6002 21.076 67.8254 22.8306 65.9881 22.8306C64.35 22.8306 63.6416 21.1606 64.7706 19.8922C65.5232 19.0255 66.4308 19.0044 67.3163 19.85ZM37.9193 27.0797C38.6277 27.8195 38.672 28.496 38.0521 29.257C37.698 29.701 37.4102 29.8067 36.6354 29.8067C35.8606 29.8067 35.5729 29.701 35.2187 29.257C34.6653 28.5806 34.621 27.7561 35.108 27.1008C35.8606 26.065 36.9232 26.065 37.9193 27.0797ZM66.6964 26.4455C68.2681 27.2065 68.3788 29.0245 66.9178 29.7644C66.143 30.166 65.5232 30.0603 64.837 29.405C63.8851 28.4749 64.1065 27.0585 65.3019 26.4878C65.9881 26.1495 66.0988 26.1495 66.6964 26.4455Z" fill="#1D3630" fill-opacity="0.8"/>
<path d="M13.1932 17.6726C12.994 17.8417 12.839 18.18 12.839 18.4125C12.839 18.645 14.5656 20.5476 17.0006 22.9786C22.0256 28.031 23.2652 29.3205 23.7522 29.9969C24.3056 30.7791 23.885 31.075 22.3133 31.075H20.9852L18.1739 28.2635C16.6243 26.7414 14.4107 24.5007 13.2817 23.2957C10.4483 20.3362 10.2048 20.3573 7.8141 23.9933C2.67849 31.8149 0.0221362 40.3341 0 48.9802V51.1576H2.10294C4.16161 51.1576 4.20589 51.1576 4.51579 50.5657C4.91425 49.8258 6.1096 48.7688 7.01719 48.3249C7.41564 48.1346 8.25682 47.9866 8.92091 47.9866C11.0017 47.9866 12.7283 49.1282 13.8352 51.2421C13.968 51.4747 14.3 51.7072 14.5656 51.7495C14.9641 51.8129 15.0526 51.9609 15.0526 52.6373C15.0526 53.3138 14.9641 53.4618 14.4992 53.5675C14.1451 53.652 13.8352 53.9691 13.6138 54.4765C12.7948 56.3579 10.8246 57.7108 8.96518 57.7108C7.12787 57.7108 5.02493 56.2733 4.40511 54.561L4.16161 53.8846L2.12508 53.948L0.110681 54.0114L0.154954 55.3855C0.376316 60.8394 2.87771 68.809 6.15388 74.3053C7.79196 77.0746 10.1384 80.4992 10.7139 80.9431C10.9132 81.1122 11.2895 81.1756 11.5994 81.0911C11.8872 81.0277 13.813 79.2942 15.8717 77.2648L19.6349 73.5654H21.5386C22.6675 73.5654 23.4644 73.65 23.4644 73.7768C23.4644 73.8825 21.2729 76.1444 18.5944 78.7869C15.274 82.0846 13.7245 83.7547 13.7245 84.0717C13.7245 84.558 14.4771 85.1921 15.0305 85.1921C15.3626 85.1921 31.0572 70.3945 30.9022 70.2254C30.8579 70.1831 25.7223 70.162 19.5242 70.1831L8.23468 70.2042L7.61487 69.6969C7.19428 69.3375 7.01719 68.9993 7.01719 68.5342C7.01719 67.1602 6.57447 67.2236 17.4655 67.2236C27.2719 67.2236 27.3383 67.2236 28.2237 66.7374C28.6886 66.4837 29.3748 65.8706 29.7511 65.3844C30.3488 64.5811 30.3709 64.4543 30.1053 63.8413C29.7954 63.1225 28.9542 62.4672 28.0466 62.2558C27.5818 62.129 27.294 62.2769 26.4085 63.0591L25.346 63.9892L16.3808 64.1372C9.87277 64.2429 7.21642 64.2218 6.68515 64.0315C5.46765 63.6299 5.15775 62.5517 6.0432 61.7696C6.53019 61.3257 6.75156 61.3045 10.9353 61.3045H15.3183L17.1335 59.6134C18.1296 58.6832 19.0372 57.9222 19.1257 57.9222C19.4135 57.9222 21.2508 59.4865 21.2508 59.7402C21.2508 59.8882 21.0073 60.2053 20.6974 60.4801C20.4096 60.7549 20.144 61.0508 20.144 61.1354C20.144 61.2411 20.963 61.3045 21.9813 61.3045H23.7965L25.5674 59.6134C26.5414 58.6832 27.4489 57.9222 27.5818 57.9222C27.7367 57.9222 28.9542 59.0426 30.3267 60.3955L32.7838 62.8688L36.2592 59.5711C38.1629 57.7742 40.2658 55.8505 40.9078 55.2798C41.5276 54.709 42.0589 54.1382 42.0589 53.9691C42.0589 53.7577 41.4612 53.6943 39.3804 53.6943C36.724 53.6943 36.7019 53.6943 36.0599 53.0813C35.7058 52.743 35.418 52.3625 35.418 52.2568C35.418 52.13 35.7279 51.7917 36.1042 51.4958C36.7462 50.9673 36.9011 50.9462 39.5132 50.9462C41.0185 50.9462 42.3024 50.8616 42.3688 50.777C42.4352 50.6713 40.3987 48.6208 37.853 46.1898L33.2265 41.7716L31.9426 42.9132C31.2342 43.5262 29.9725 44.7312 29.1092 45.5979L27.5596 47.1622L25.3681 45.1539L23.1988 43.1245H21.6714C20.8302 43.1245 20.144 43.188 20.144 43.2725C20.144 43.3571 20.4539 43.7376 20.8523 44.1181C21.4943 44.7523 21.5164 44.858 21.2508 45.3231C21.0958 45.619 20.5646 46.1475 20.0997 46.528L19.2143 47.1833L17.1777 45.2596L15.1191 43.3359H10.7582C6.70728 43.3359 6.39738 43.3148 5.97679 42.9132C5.40124 42.3635 5.40124 41.3911 5.99892 40.8838C6.44165 40.5033 6.97292 40.4821 15.8496 40.4187L25.2353 40.3553L26.32 41.4334C27.2276 42.3424 27.5154 42.4904 27.9359 42.3847C29.3748 41.9407 30.4816 40.5878 30.1274 39.7C29.8397 38.9389 28.2459 37.6917 27.294 37.438C26.7627 37.2901 22.8667 37.2055 16.58 37.2055C7.30496 37.2055 6.68515 37.1844 6.3531 36.825C5.82183 36.2542 5.88824 35.3664 6.53019 34.7745L7.06146 34.246H19.015C27.3604 34.246 31.0129 34.1825 31.1236 34.0134C31.19 33.8866 29.4412 32.0263 27.0726 29.7433C24.7705 27.5025 21.0073 23.8031 18.7273 21.4989C14.4107 17.2075 13.9901 16.9116 13.1932 17.6726ZM11.9093 28.8765C12.6841 29.701 12.4406 31.1173 11.4666 31.4133C10.0056 31.8572 8.8545 31.2653 8.8545 30.1026C8.8545 29.0879 9.05373 28.7286 9.82849 28.4115C10.6697 28.0732 11.2452 28.2001 11.9093 28.8765ZM16.1373 28.348C17.3991 28.7708 17.8197 30.314 16.9121 31.1596C16.3808 31.6669 14.8534 31.6035 14.2336 31.0328C13.3924 30.2717 13.7023 28.7286 14.8091 28.348C15.1191 28.2423 15.3847 28.1367 15.4068 28.1367C15.429 28.1155 15.7389 28.2212 16.1373 28.348ZM33.1601 47.8387L33.8685 48.5363L31.8541 50.5868L29.8397 52.6373L31.7434 54.3496C32.7838 55.3009 33.6471 56.1253 33.6471 56.2099C33.6471 56.4213 32.3189 57.7108 32.0976 57.7108C31.9869 57.7108 30.8801 56.7807 29.6404 55.6391L27.3825 53.5886L25.7002 55.322L23.9957 57.0766L23.1545 56.2522L22.2912 55.4066L23.6636 53.9902L25.0361 52.5528L23.5972 51.1787L22.1584 49.7835L23.0217 48.8956L23.885 48.0289L25.6559 49.7412L27.4268 51.4747L29.7068 49.2973C30.9686 48.1135 32.0976 47.1411 32.2082 47.1411C32.3411 47.1411 32.7838 47.4581 33.1601 47.8387ZM18.9265 50.8405L20.6974 52.4259L18.9929 54.0537C18.041 54.9415 17.2441 55.6391 17.1999 55.5969C17.0449 55.4277 16.8678 49.255 17.0228 49.255C17.0892 49.2761 17.9525 49.9737 18.9265 50.8405ZM15.0526 74.7704C13.0161 76.8632 12.9054 76.9055 11.6437 75.7216C10.559 74.7281 10.0941 74.0728 10.2934 73.7768C10.3819 73.65 11.5551 73.5654 13.326 73.5654H16.2259L15.0526 74.7704Z" fill="#1D3630" fill-opacity="0.8"/>
<path d="M80.1113 25.3885C75.684 29.8067 72.0315 33.6118 71.9873 33.8443C71.9209 34.246 72.1644 34.246 83.6752 34.246C92.1977 34.246 95.5624 34.3094 95.9166 34.4996C97.0012 35.0493 97.2669 36.064 96.5142 36.7827C96.0937 37.1844 95.7837 37.2055 85.9331 37.2055C75.8168 37.2055 75.7726 37.2055 74.865 37.6706C73.8246 38.2202 72.6071 39.5943 72.6071 40.2284C72.6071 40.6724 74.3558 42.4904 74.7986 42.4904C74.9314 42.4904 75.5955 42.0042 76.2596 41.4334L77.4771 40.3764H86.7522C95.7837 40.3764 96.0272 40.3976 96.6028 40.8204C96.9791 41.0952 97.1783 41.4545 97.1783 41.8139C97.1562 43.188 96.6028 43.336 91.7328 43.336H87.5933L85.5347 45.2596L83.476 47.1833L82.8562 46.7606C82.5241 46.528 81.9486 46.0418 81.6165 45.7036L80.9746 45.0694L81.7715 44.2238C82.2142 43.7587 82.5684 43.336 82.5684 43.2514C82.5684 43.188 81.8822 43.1246 81.041 43.1246H79.5136L77.4771 45.1539L75.4405 47.2045L72.6292 44.5198C71.1018 43.0611 69.7294 41.8562 69.6187 41.8562C69.1981 41.8562 60.3657 50.46 60.5207 50.7136C60.6314 50.8616 61.6496 50.9462 63.4205 50.9462C66.1212 50.9462 66.1654 50.9462 66.6082 51.4958C67.2058 52.2145 67.1837 52.5528 66.5196 53.1658C66.0105 53.6732 65.8555 53.6943 63.4427 53.6943C62.0481 53.6943 60.8527 53.7789 60.7863 53.8634C60.7199 53.9691 62.7565 56.0196 65.3021 58.4507L69.9286 62.8688L72.5849 60.3955C74.0459 59.0426 75.3077 57.9222 75.4184 57.9222C75.5291 57.9222 76.3924 58.6832 77.3664 59.6134L79.1373 61.3045H80.9746H82.8119L82.1035 60.4589L81.373 59.6134L82.2364 58.7678C82.7234 58.3027 83.2104 57.9222 83.3432 57.9222C83.476 57.9222 84.3614 58.6832 85.3354 59.6134L87.1063 61.3045H91.7771C96.0272 61.3045 96.47 61.3468 96.802 61.685C97.5546 62.4672 97.0898 64.0527 96.1158 64.0527C95.9166 64.0527 92.2641 64.0527 87.9918 64.0738C76.5252 64.1161 77.7206 64.2006 76.5252 63.2071C75.2192 62.1078 74.4223 62.0655 73.3597 63.0802C72.3636 64.0315 72.3857 64.6657 73.4261 65.7649C74.865 67.287 74.3559 67.2236 85.424 67.2236C95.0532 67.2236 95.4074 67.2447 95.6288 67.6252C96.0051 68.3228 95.8723 68.9147 95.2082 69.5701L94.5441 70.1831H83.2989C77.1229 70.1831 72.0315 70.2465 71.9873 70.3522C71.9651 70.4368 72.5849 71.0498 73.3597 71.684C74.1345 72.2971 77.6984 75.616 81.2624 78.9983C84.8042 82.4017 87.8811 85.1921 88.0803 85.1921C88.6559 85.1921 89.4306 84.5791 89.4306 84.114C89.4306 83.8604 87.9254 82.2326 85.4682 79.8438C83.2989 77.7299 81.041 75.468 80.4433 74.8338L79.3808 73.6711L81.373 73.6077L83.3432 73.5443L84.0958 74.3476C84.5164 74.7915 86.243 76.5038 87.9032 78.1527C91.1794 81.387 91.5779 81.6196 92.4633 80.6894C93.4152 79.717 96.6028 74.8549 97.7539 72.6141C100.388 67.4561 102.491 60.2687 102.757 55.3855L102.823 54.0114H100.764H98.6836L98.418 54.6456C97.6211 56.4636 95.828 57.584 93.7029 57.584C92.5518 57.6051 92.2198 57.5205 91.3786 56.9709C90.8695 56.6116 90.0062 55.7026 89.4749 54.9627C88.9658 54.2017 88.3902 53.5675 88.2131 53.5252C87.9918 53.4829 87.8811 53.187 87.8811 52.6373C87.8811 51.9609 87.9696 51.8129 88.3681 51.7495C88.678 51.7072 89.0322 51.3478 89.3642 50.7348C90.0505 49.4875 90.626 48.9168 91.7549 48.4094C93.9907 47.3736 97.0012 48.3883 98.1966 50.5657C98.5065 51.1576 98.5286 51.1576 100.764 51.1576H103L102.845 48.0289C102.402 38.9178 100.167 31.9629 95.2525 24.3316C92.574 20.1671 92.6847 20.1671 88.8551 24.0356C87.2613 25.6422 85.4904 27.4813 84.8706 28.1155C84.2729 28.7708 83.4096 29.701 82.9226 30.2083C82.2364 30.9694 81.9043 31.1596 81.1074 31.2442C79.7128 31.3921 78.5839 31.1385 78.5839 30.6734C78.5839 30.2929 80.6204 28.1155 86.6193 22.133C88.9879 19.7654 89.8734 18.7296 89.8734 18.3491C89.8734 17.6938 89.4749 17.3344 88.7444 17.3344C88.2574 17.3344 86.7743 18.7085 80.1113 25.3885ZM88.4345 28.644C89.6299 29.7644 88.8994 31.4978 87.2613 31.4978C86.0438 31.4978 85.4461 31.0116 85.4461 30.0604C85.4682 28.3692 87.2834 27.5236 88.4345 28.644ZM93.0831 28.4538C93.5923 28.644 94.1235 29.7433 93.9464 30.2929C93.6808 31.1385 93.1717 31.4978 92.2419 31.4978C91.0909 31.4978 90.5375 31.0328 90.5375 30.0392C90.5375 28.94 91.0466 28.3269 91.9763 28.3269C92.3748 28.3269 92.8839 28.3903 93.0831 28.4538ZM77.0343 49.7835L78.8052 48.1135L79.58 48.8322C80.0006 49.2339 80.3548 49.6144 80.3548 49.6989C80.3548 49.7624 79.7571 50.3965 79.0266 51.073C78.2961 51.7495 77.6984 52.4259 77.6984 52.5739C77.6984 52.7007 78.0969 53.1235 78.5839 53.4829C79.0709 53.8423 79.6685 54.4342 79.9342 54.7724L80.399 55.4066L79.8014 56.1253C79.4915 56.527 79.1151 56.8652 78.9602 56.8652C78.8274 56.8652 77.9419 56.1253 76.9901 55.2375L75.2856 53.6097L73.1162 55.618C71.9209 56.6961 70.9026 57.6897 70.8583 57.7742C70.7919 57.9645 69.0653 56.4636 69.0653 56.2099C69.0653 56.1253 69.8622 55.322 70.8362 54.413C71.8102 53.5252 72.6071 52.7007 72.6071 52.595C72.6071 52.4894 71.7438 51.5592 70.6812 50.5022L68.7775 48.5997L69.6187 47.7752L70.482 46.9297L72.8727 49.1916L75.2634 51.4747L77.0343 49.7835ZM85.8888 52.4259C85.8888 54.6033 85.8224 55.5969 85.6453 55.5969C85.5125 55.5969 84.6492 54.9204 83.7638 54.0748L82.1035 52.5528L83.8302 50.9039C84.782 49.9949 85.6232 49.255 85.7117 49.255C85.8224 49.255 85.8888 50.6714 85.8888 52.4259ZM92.5297 73.8402C92.5297 74.2842 91.3344 75.7851 90.5596 76.2924C90.0505 76.6306 89.7848 76.7152 89.4749 76.5461C89.0765 76.3347 86.7743 73.9037 86.7743 73.6923C86.7743 73.6288 88.0803 73.5654 89.652 73.5654C91.9099 73.5654 92.5297 73.6288 92.5297 73.8402Z" fill="#1D3630" fill-opacity="0.8"/>
<path d="M42.5901 30.7368C42.6565 31.6458 42.7229 33.5484 42.7229 34.9647V37.5226L44.9587 39.6788C46.1983 40.8838 47.283 41.8562 47.3937 41.8562C47.5043 41.8562 47.5929 40.0805 47.5929 37.882V33.9289L45.0251 31.4979L42.4573 29.0668L42.5901 30.7368Z" fill="#1D3630" fill-opacity="0.8"/>
<path d="M57.51 31.5824L55.1193 33.9712V37.9031C55.1193 40.461 55.2078 41.8562 55.3406 41.8562C55.4734 41.8562 56.5581 40.8838 57.7756 39.6788L59.9892 37.5226V33.337C59.9892 31.0539 59.9671 29.1936 59.945 29.1936C59.9007 29.2148 58.816 30.2929 57.51 31.5824Z" fill="#1D3630" fill-opacity="0.8"/>
<path d="M33.5806 36.9306C33.4921 36.994 33.4257 37.2266 33.4257 37.4168C33.4257 37.6071 36.8125 40.9683 40.952 44.8791C45.0915 48.7899 48.4783 52.0876 48.4783 52.1933C48.4783 52.299 45.0915 55.5757 40.9298 59.4653C35.595 64.4965 33.4035 66.6739 33.4699 66.9487C33.5363 67.2658 33.802 67.3292 35.3736 67.3926L37.211 67.4561L44.3167 60.6914L51.4446 53.9056L58.3068 60.48C62.0921 64.0949 65.4125 67.139 65.7003 67.2447C66.6079 67.5829 68.7772 67.4772 69.1757 67.0755C69.5299 66.7373 69.0872 66.2934 61.8929 59.5499C57.687 55.6179 54.2337 52.2779 54.2337 52.1299C54.2337 51.9819 57.6206 48.6419 61.7822 44.7311C66.5858 40.165 69.2864 37.4591 69.2421 37.2266C69.1757 36.9518 68.8215 36.8672 67.272 36.8249L65.3683 36.7615L58.3953 43.505L51.4224 50.2485L44.3388 43.5261L37.2774 36.7827H35.5065C34.5325 36.7827 33.647 36.8461 33.5806 36.9306Z" fill="#1D3630" fill-opacity="0.8"/>
<path d="M50.7142 58.4718C50.2715 59.0003 50.2494 59.2962 50.2494 64.0949V69.1472L46.4862 72.8044L42.7009 76.4826L42.7673 79.2731L42.8337 82.0846L46.3755 78.4486C48.3235 76.4615 49.9837 74.8338 50.0944 74.8338C50.1829 74.8338 50.2494 75.8273 50.2494 77.0746V79.2942L47.3274 82.2537C45.7114 83.9026 43.9627 85.6995 43.4535 86.2914L42.5017 87.3483V91.4071C42.5017 95.0854 42.4574 95.5293 42.1032 95.8253C41.5277 96.3326 40.3766 96.2903 39.8896 95.7619C39.5354 95.3602 39.5133 94.3032 39.4026 82.8034L39.2919 70.2888H36.6356H33.9792L33.9128 81.3659C33.8685 91.3226 33.8243 92.4852 33.4922 92.8446C32.9831 93.3942 31.9648 93.3308 31.3229 92.6966L30.7695 92.1893V83.501C30.7695 77.2437 30.703 74.8338 30.526 74.8338C30.3931 74.8338 29.4191 75.7216 28.3787 76.7786C27.3162 77.8567 24.4828 80.6683 22.0256 83.0147C19.5907 85.3824 17.5984 87.4118 17.5984 87.5597C17.5984 87.9191 21.1181 90.625 23.8851 92.4218C26.2758 93.9439 30.526 96.079 33.6914 97.3262C37.8531 98.9751 43.21 100.159 47.9915 100.518L49.8066 100.645V98.8271C49.8066 97.1571 49.7624 97.0091 49.3196 96.84C47.5487 96.1846 45.9549 94.1975 45.6893 92.3373C45.3794 90.2445 46.8846 87.6866 49.0983 86.5028L49.9837 86.0377L50.0501 87.7077C50.1165 88.9761 50.2494 89.4834 50.5593 89.8217C51.0905 90.3924 51.6218 90.3924 52.1531 89.8217C52.5073 89.4412 52.5737 89.1029 52.5073 87.7077C52.4851 86.7776 52.5294 86.0377 52.6401 86.0377C53.0385 86.0377 54.8316 87.2849 55.6063 88.1094C58.1077 90.7729 57.2001 94.9374 53.769 96.6286L52.9057 97.0302V98.8271C52.9057 100.899 52.5958 100.751 56.0048 100.413C62.7785 99.7361 68.6889 98.0026 74.7763 94.8951C78.4067 93.056 83.8079 89.5046 85.2246 88.0671L85.7559 87.4963L79.1372 81.1756C75.4847 77.6876 72.3635 74.8338 72.2307 74.8338C72.0093 74.8338 71.9429 76.6518 71.9429 83.2896C71.9429 89.1029 71.8543 91.8933 71.6994 92.2527C71.1903 93.3097 69.198 93.5211 68.9545 92.5275C68.8659 92.1047 68.6667 81.0911 68.6446 73.2906L68.6224 70.1619L66.0325 70.2254L63.4204 70.2888L63.3097 82.7822C63.1991 94.7049 63.1769 95.3179 62.7785 95.7407C62.2472 96.2903 61.074 96.3326 60.587 95.8041C60.2549 95.4659 60.2107 94.8317 60.2107 91.2591V87.1158L56.3368 83.2896L52.463 79.4845V77.0957V74.7281L53.6141 75.8907C57.178 79.4845 59.7679 82.0212 59.8786 82.0212C59.945 82.0212 59.9893 80.774 59.9893 79.2308V76.4404L56.2261 72.8044L52.463 69.1895V64.116C52.463 59.2962 52.4408 59.0003 51.9981 58.4718C51.7546 58.1758 51.4669 57.9222 51.3562 57.9222C51.2455 57.9222 50.9577 58.1758 50.7142 58.4718ZM66.7409 75.1509C67.9805 75.6371 68.3125 76.9477 67.4492 77.899C66.7187 78.7234 65.4348 78.7234 64.7265 77.9201C63.7082 76.7997 64.328 75.1931 65.9218 74.8549C65.944 74.8338 66.3203 74.9817 66.7409 75.1509ZM37.521 75.172C37.9416 75.3411 38.5171 76.3347 38.5171 76.9477C38.5171 77.5608 37.3439 78.6389 36.6798 78.6389C35.4402 78.6389 34.5548 77.2859 34.9975 76.1233C35.3738 75.172 36.4142 74.7703 37.521 75.172ZM27.5597 89.3777C27.4933 89.568 27.3383 89.5891 27.0727 89.4412C26.475 89.1241 23.1325 86.08 23.2431 85.9531C23.3095 85.8897 24.3057 84.9384 25.4568 83.818L27.5597 81.7887L27.6261 85.4458C27.6482 87.454 27.6261 89.2086 27.5597 89.3777ZM77.6319 83.7969C79.2257 85.2978 79.6906 85.8474 79.5578 86.1011C79.27 86.5662 75.529 89.8428 75.2633 89.8428C75.1305 89.8428 75.042 88.3842 75.042 85.8263C75.042 83.0359 75.1084 81.8098 75.2855 81.8098C75.4183 81.8098 76.4808 82.6977 77.6319 83.7969ZM37.8752 84.9596C38.65 85.6995 38.7164 86.5873 38.0523 87.3906C37.6981 87.8346 37.4103 87.9402 36.6356 87.9402C35.8608 87.9402 35.573 87.8346 35.2188 87.3906C34.1784 86.1434 35.1082 84.41 36.8127 84.3677C37.034 84.3465 37.521 84.6213 37.8752 84.9596ZM67.3607 84.9384C67.582 85.1498 67.8034 85.6572 67.8919 86.08C68.1354 87.6232 66.1432 88.5322 64.7707 87.4963C63.7967 86.7776 64.0181 85.2555 65.1913 84.6002C65.7447 84.2831 66.8294 84.4522 67.3607 84.9384Z" fill="#1D3630" fill-opacity="0.8"/>
<path d="M55.1857 64.9405L55.3406 67.7521L57.3993 69.8026C58.5504 70.9441 59.5908 71.8743 59.7236 71.8743C59.9228 71.8743 59.9892 71.0921 59.9892 69.1684V66.4837L57.7092 64.3063C56.4696 63.1225 55.3628 62.1501 55.2521 62.1501C55.1414 62.1501 55.1193 63.3551 55.1857 64.9405Z" fill="#1D3630" fill-opacity="0.8"/>
<path d="M44.9145 64.4754L42.7894 66.5471L42.6566 69.0838C42.4795 72.4661 42.5681 72.4873 45.2908 69.8026L47.3716 67.752V65.0462C47.3716 63.5664 47.3052 62.3615 47.2167 62.3615C47.106 62.3826 46.0877 63.3127 44.9145 64.4754Z" fill="#1D3630" fill-opacity="0.8"/>
</svg>
