<svg width="85" height="68" viewBox="0 0 85 68" fill="none" xmlns="http://www.w3.org/2000/svg">
<path d="M47.6887 18.7042L47.7748 37.4378L57.9323 37.5259L68.0899 37.5846L67.9177 40.932C67.6021 46.3935 66.3682 49.5647 63.585 52.2074C61.8921 53.7636 60.5148 54.3215 58.2767 54.3215H56.8133V67.6229L59.9122 67.4467C71.1888 66.8007 80.1412 59.46 83.5557 48.0965C84.187 45.953 84.187 45.8062 84.3017 22.9618L84.3878 0H47.6313L47.6887 18.7042Z" fill="#E1DFDA"/>
<path d="M0 37.5846H20.0855V40.609C20.0855 42.3708 19.9133 44.3675 19.6551 45.3658C18.2778 50.8273 14.8346 54.3215 10.8462 54.3215H9.18194V67.6229L12.1374 67.4468C23.6148 66.8008 32.9402 58.9902 35.9244 47.5093C36.5556 45.1016 36.5556 44.6905 36.6417 22.5214L36.7565 3.8147e-05H0V37.5846Z" fill="#E1DFDA"/>
</svg>
