<svg width="193" height="145" viewBox="0 0 193 145" fill="none" xmlns="http://www.w3.org/2000/svg">
<path d="M48.1828 144.2C33.5161 144.2 21.9161 140.133 13.3828 132C4.84943 123.733 0.582764 112.533 0.582764 98.4V45.6C0.582764 31.7334 4.84943 20.7334 13.3828 12.6C21.9161 4.46669 33.5161 0.400024 48.1828 0.400024C62.8494 0.400024 74.4494 4.46669 82.9828 12.6C91.6494 20.7334 95.9828 31.7334 95.9828 45.6V98.4C95.9828 112.533 91.6494 123.733 82.9828 132C74.4494 140.133 62.8494 144.2 48.1828 144.2ZM48.1828 120C54.1828 120 58.9161 118.2 62.3828 114.6C65.9828 110.867 67.7828 105.933 67.7828 99.8V44.8C67.7828 38.6667 65.9828 33.8 62.3828 30.2C58.9161 26.4667 54.1828 24.6 48.1828 24.6C42.3161 24.6 37.5828 26.4667 33.9828 30.2C30.5161 33.8 28.7828 38.6667 28.7828 44.8V99.8C28.7828 105.933 30.5161 110.867 33.9828 114.6C37.5828 118.2 42.3161 120 48.1828 120Z" fill="#E0DFD9"/>
<path d="M163.297 2.60002C163.964 2.20002 164.964 2.00002 166.297 2.00002H190.497C191.163 2.00002 191.697 2.26668 192.097 2.80002C192.63 3.20002 192.897 3.73335 192.897 4.40002V139.6C192.897 140.267 192.63 140.867 192.097 141.4C191.697 141.8 191.163 142 190.497 142H167.097C166.43 142 165.83 141.8 165.297 141.4C164.897 140.867 164.697 140.267 164.697 139.6V30C164.697 29.7334 164.563 29.4667 164.297 29.2C164.03 28.9334 163.763 28.8667 163.497 29L143.697 34.4L142.897 34.6C141.697 34.6 141.097 33.8667 141.097 32.4L140.497 15.2C140.497 13.8667 141.097 12.9334 142.297 12.4L163.297 2.60002Z" fill="#E0DFD9"/>
</svg>
