<svg width="239" height="145" viewBox="0 0 239 145" fill="none" xmlns="http://www.w3.org/2000/svg">
<path d="M47.8234 144.2C33.1567 144.2 21.5567 140.133 13.0234 132C4.49006 123.733 0.223389 112.533 0.223389 98.4V45.6C0.223389 31.7334 4.49006 20.7334 13.0234 12.6C21.5567 4.46669 33.1567 0.400024 47.8234 0.400024C62.4901 0.400024 74.0901 4.46669 82.6234 12.6C91.2901 20.7334 95.6234 31.7334 95.6234 45.6V98.4C95.6234 112.533 91.2901 123.733 82.6234 132C74.0901 140.133 62.4901 144.2 47.8234 144.2ZM47.8234 120C53.8234 120 58.5567 118.2 62.0234 114.6C65.6234 110.867 67.4234 105.933 67.4234 99.8V44.8C67.4234 38.6667 65.6234 33.8 62.0234 30.2C58.5567 26.4667 53.8234 24.6 47.8234 24.6C41.9567 24.6 37.2234 26.4667 33.6234 30.2C30.1567 33.8 28.4234 38.6667 28.4234 44.8V99.8C28.4234 105.933 30.1567 110.867 33.6234 114.6C37.2234 118.2 41.9567 120 47.8234 120Z" fill="#E0DFD9"/>
<path d="M181.686 116.6C181.419 116.867 181.353 117.133 181.486 117.4C181.619 117.667 181.886 117.8 182.286 117.8H236.486C237.153 117.8 237.686 118.067 238.086 118.6C238.619 119 238.886 119.533 238.886 120.2V139.6C238.886 140.267 238.619 140.867 238.086 141.4C237.686 141.8 237.153 142 236.486 142H146.486C145.819 142 145.219 141.8 144.686 141.4C144.286 140.867 144.086 140.267 144.086 139.6V121.2C144.086 120 144.486 119 145.286 118.2C151.819 111.8 158.486 104.867 165.286 97.4C172.086 89.8 176.353 85.0667 178.086 83.2C181.819 78.8 185.619 74.6 189.486 70.6C201.619 57.1334 207.686 47.1334 207.686 40.6C207.686 35.9333 206.019 32.1334 202.686 29.2C199.353 26.1334 195.019 24.6 189.686 24.6C184.353 24.6 180.019 26.1334 176.686 29.2C173.353 32.1334 171.686 36.0667 171.686 41V46C171.686 46.6667 171.419 47.2667 170.886 47.8C170.486 48.2 169.953 48.4 169.286 48.4H145.686C145.019 48.4 144.419 48.2 143.886 47.8C143.486 47.2667 143.286 46.6667 143.286 46V36.6C143.686 29.4 145.953 23.0667 150.086 17.6C154.219 12 159.686 7.73335 166.486 4.80002C173.419 1.86669 181.153 0.400024 189.686 0.400024C199.153 0.400024 207.353 2.20002 214.286 5.80001C221.353 9.26668 226.753 14 230.486 20C234.353 26 236.286 32.6667 236.286 40C236.286 45.6 234.886 51.3334 232.086 57.2C229.286 63.0667 225.086 69.4 219.486 76.2C215.353 81.4 210.886 86.5334 206.086 91.6C201.286 96.6667 194.153 104 184.686 113.6L181.686 116.6Z" fill="#E0DFD9"/>
</svg>
