<svg width="85" height="68" viewBox="0 0 85 68" fill="none" xmlns="http://www.w3.org/2000/svg">
<path d="M36.6991 48.9187L36.613 30.1852L26.4555 30.0971L16.2979 30.0384L16.4701 26.691C16.7857 21.2295 18.0196 18.0583 20.8028 15.4156C22.4958 13.8594 23.8731 13.3015 26.1111 13.3015H27.5745V3.8147e-05L24.4756 0.176216C13.199 0.822201 4.24665 8.16294 0.832111 19.5264C0.200855 21.6699 0.200855 21.8167 0.0860786 44.6611L0 67.6229H36.7565L36.6991 48.9187Z" fill="#E1DFDA"/>
<path d="M84.3878 30.0383H64.3023V27.0139C64.3023 25.2521 64.4745 23.2555 64.7327 22.2571C66.11 16.7956 69.5532 13.3014 73.5416 13.3014H75.2059V0L72.2504 0.176178C60.773 0.822163 51.4476 8.63271 48.4635 20.1136C47.8322 22.5214 47.8322 22.9325 47.7461 45.1015L47.6313 67.6229H84.3878V30.0383Z" fill="#E1DFDA"/>
</svg>
